<svg width="113" height="127" xmlns="http://www.w3.org/2000/svg" xmlns:xlink="http://www.w3.org/1999/xlink" xml:space="preserve" overflow="hidden"><defs><clipPath id="clip0"><rect x="438" y="296" width="113" height="127"/></clipPath></defs><g clip-path="url(#clip0)" transform="translate(-438 -296)"><path d="M93.9544 166.611 93.9544 138.024C93.9544 133.712 90.3848 130.223 85.9628 130.223L29.55 130.223C25.1381 130.223 21.5584 133.712 21.5584 138.024L21.5584 166.611C21.5584 170.923 25.1381 174.412 29.55 174.412L31.2145 174.412 24.7771 185.402 45.6937 174.412 85.9728 174.412C90.3848 174.412 93.9644 170.923 93.9644 166.611Z" fill="#E6E6E6" transform="matrix(1 0 0 1.00039 425.203 178.179)"/><path d="M113.848 184.058 57.4355 184.058C53.0236 184.058 49.4439 187.548 49.4439 191.86L49.4439 220.447C49.4439 224.759 53.0236 228.248 57.4355 228.248L97.7146 228.248 118.631 239.238 112.194 228.248 113.858 228.248C118.27 228.248 121.85 224.759 121.85 220.447L121.85 191.86C121.85 187.548 118.28 184.058 113.858 184.058L113.848 184.058Z" fill="#E6E6E6" transform="matrix(1 0 0 1.00039 425.203 178.179)"/><path d="M93.9644 134.895 93.9644 163.483C93.9644 167.794 90.3848 171.274 85.9728 171.274L45.6937 171.274 24.7771 182.264 31.2145 171.274 29.55 171.274C25.1381 171.274 21.5584 167.784 21.5584 163.483L21.5584 134.895C21.5584 130.584 25.128 127.094 29.55 127.094L85.9628 127.094C90.3747 127.094 93.9544 130.584 93.9544 134.895L93.9644 134.895Z" fill="#F9A18A" transform="matrix(1 0 0 1.00039 425.203 178.179)"/><path d="M121.84 188.731 121.84 217.318C121.84 221.63 118.26 225.11 113.848 225.11L112.184 225.11 118.621 236.099 97.7046 225.11 57.4255 225.11C53.0136 225.11 49.4339 221.62 49.4339 217.318L49.4339 188.731C49.4339 184.419 53.0035 180.93 57.4255 180.93L113.838 180.93C118.25 180.93 121.83 184.419 121.83 188.731L121.84 188.731Z" fill="#AFDAF9" transform="matrix(1 0 0 1.00039 425.203 178.179)"/><path d="M99.8604 203.601C99.8604 211.454 93.4946 217.82 85.6419 217.82 77.7892 217.82 71.4234 211.454 71.4234 203.601 71.4234 195.749 77.7892 189.383 85.6419 189.383 93.4946 189.383 99.8604 195.749 99.8604 203.601Z" fill="#F9DD53" transform="matrix(1 0 0 1.00039 425.203 178.179)"/><path d="M78.7432 201.937C78.2118 201.937 77.6904 201.726 77.3194 201.365 76.9383 201.004 76.7278 200.493 76.7278 199.971 76.7278 199.46 76.9383 198.959 77.3194 198.578 77.6904 198.217 78.2118 198.006 78.7432 198.006 79.2747 198.006 79.7961 198.217 80.1671 198.578 80.5481 198.939 80.7587 199.45 80.7587 199.971 80.7587 200.493 80.5481 200.994 80.1671 201.365 79.7961 201.726 79.2747 201.937 78.7432 201.937Z" fill="#4D4D4D" transform="matrix(1 0 0 1.00039 425.203 178.179)"/><path d="M92.5406 201.937C92.0192 201.937 91.4978 201.726 91.1167 201.365 90.7357 201.004 90.5251 200.493 90.5251 199.971 90.5251 199.46 90.7357 198.949 91.1167 198.578 91.4978 198.217 92.0092 198.006 92.5406 198.006 93.072 198.006 93.5934 198.217 93.9644 198.578 94.3354 198.939 94.546 199.45 94.546 199.971 94.546 200.493 94.3354 200.994 93.9644 201.365 93.5834 201.726 93.072 201.937 92.5406 201.937Z" fill="#4D4D4D" transform="matrix(1 0 0 1.00039 425.203 178.179)"/><path d="M79.0039 205.777C79.0039 209.357 81.982 212.255 85.6419 212.255 89.3118 212.255 92.2799 209.357 92.2799 205.777L79.0039 205.777Z" fill="#4D4D4D" transform="matrix(1 0 0 1.00039 425.203 178.179)"/><path d="M70.5009 149.194C70.5009 156.233 64.795 161.939 57.7564 161.939 50.7178 161.939 45.0119 156.233 45.0119 149.194 45.0119 142.155 50.7178 136.449 57.7564 136.449 64.795 136.449 70.5009 142.155 70.5009 149.194Z" fill="#F9DD53" transform="matrix(1 0 0 1.00039 425.203 178.179)"/><path d="M51.5696 147.9C51.0482 147.9 50.5268 147.69 50.1458 147.329 49.7648 146.968 49.5542 146.457 49.5542 145.935 49.5542 145.414 49.7648 144.912 50.1458 144.541 50.5268 144.18 51.0382 143.97 51.5696 143.97 52.1011 143.97 52.6225 144.18 52.9935 144.541 53.3645 144.902 53.5751 145.414 53.5751 145.935 53.5751 146.457 53.3645 146.958 52.9935 147.329 52.6125 147.69 52.1011 147.9 51.5696 147.9Z" fill="#4D4D4D" transform="matrix(1 0 0 1.00039 425.203 178.179)"/><path d="M63.9431 147.9C63.4217 147.9 62.9003 147.69 62.5193 147.329 62.1383 146.968 61.9277 146.457 61.9277 145.935 61.9277 145.414 62.1383 144.912 62.5193 144.541 62.9003 144.18 63.4117 143.97 63.9431 143.97 64.4746 143.97 64.996 144.18 65.367 144.541 65.738 144.902 65.9486 145.414 65.9486 145.935 65.9486 146.457 65.738 146.958 65.367 147.329 64.986 147.69 64.4746 147.9 63.9431 147.9Z" fill="#4D4D4D" transform="matrix(1 0 0 1.00039 425.203 178.179)"/><path d="M57.7564 155.16C55.9214 155.16 54.0865 154.478 52.6927 153.115 52.3317 152.754 52.3317 152.172 52.6927 151.821 53.0537 151.47 53.6553 151.46 54.0163 151.821 56.0718 153.837 59.4309 153.837 61.4965 151.821 61.8575 151.46 62.4591 151.46 62.8201 151.821 63.1811 152.182 63.1811 152.764 62.8201 153.115 61.4163 154.478 59.5914 155.16 57.7564 155.16L57.7664 155.16Z" fill="#4D4D4D" transform="matrix(1 0 0 1.00039 425.203 178.179)"/><path d="M62.8702 180.93 58.6087 188.922 55.4401 194.868 49.4539 206.088 49.4539 188.731C49.4539 184.419 53.0236 180.93 57.4456 180.93L62.8702 180.93 62.8702 180.93 62.8602 180.93Z" fill="#F2F2F2" fill-opacity="0.23" transform="matrix(1 0 0 1.00039 425.203 178.179)"/><path d="M121.84 188.731 121.84 217.318C121.84 221.63 118.26 225.11 113.848 225.11L112.184 225.11 118.621 236.099 97.7046 225.11 75.6047 225.11 99.1685 180.92 113.838 180.92C118.25 180.92 121.83 184.409 121.83 188.721L121.84 188.721Z" fill="#F2F2F2" fill-opacity="0.23" transform="matrix(1 0 0 1.00039 425.203 178.179)"/><path d="M35.5563 127.094 29.4096 138.625 26.0806 144.852 21.5483 153.335 21.5483 134.885C21.5483 130.574 25.118 127.084 29.54 127.084L35.5463 127.084 35.5563 127.094Z" fill="#F2F2F2" fill-opacity="0.23" transform="matrix(1 0 0 1.00039 425.203 178.179)"/><path d="M93.9644 134.895 93.9644 163.483C93.9644 167.794 90.3848 171.274 85.9728 171.274L53.5149 171.274 77.0787 127.084 85.9728 127.084C90.3848 127.084 93.9644 130.574 93.9644 134.885Z" fill="#F2F2F2" fill-opacity="0.23" transform="matrix(1 0 0 1.00039 425.203 178.179)"/><text fill="#AAD4FF" font-family="Arial,Arial_MSFontService,sans-serif" font-weight="700" font-size="66" transform="matrix(1.00272 0 0 1.00311 550.291 382)">MindMira</text></g></svg>