<svg width="429" height="127" xmlns="http://www.w3.org/2000/svg" xmlns:xlink="http://www.w3.org/1999/xlink" xml:space="preserve" overflow="hidden"><g transform="translate(-425 -263)"><path d="M93.7 166.16 93.7 137.65C93.7 133.35 90.14 129.87 85.73 129.87L29.47 129.87C25.07 129.87 21.5 133.35 21.5 137.65L21.5 166.16C21.5 170.46 25.07 173.94 29.47 173.94L31.13 173.94 24.71 184.9 45.57 173.94 85.74 173.94C90.14 173.94 93.71 170.46 93.71 166.16Z" fill="#E6E6E6" transform="matrix(1 0 0 1.00311 425 145.179)"/><path d="M113.54 183.56 57.28 183.56C52.88 183.56 49.31 187.04 49.31 191.34L49.31 219.85C49.31 224.15 52.88 227.63 57.28 227.63L97.45 227.63 118.31 238.59 111.89 227.63 113.55 227.63C117.95 227.63 121.52 224.15 121.52 219.85L121.52 191.34C121.52 187.04 117.96 183.56 113.55 183.56L113.54 183.56Z" fill="#E6E6E6" transform="matrix(1 0 0 1.00311 425 145.179)"/><path d="M93.71 134.53 93.71 163.04C93.71 167.34 90.14 170.81 85.74 170.81L45.57 170.81 24.71 181.77 31.13 170.81 29.47 170.81C25.07 170.81 21.5 167.33 21.5 163.04L21.5 134.53C21.5 130.23 25.06 126.75 29.47 126.75L85.73 126.75C90.13 126.75 93.7 130.23 93.7 134.53L93.71 134.53Z" fill="#F9A18A" transform="matrix(1 0 0 1.00311 425 145.179)"/><path d="M121.51 188.22 121.51 216.73C121.51 221.03 117.94 224.5 113.54 224.5L111.88 224.5 118.3 235.46 97.44 224.5 57.27 224.5C52.87 224.5 49.3 221.02 49.3 216.73L49.3 188.22C49.3 183.92 52.86 180.44 57.27 180.44L113.53 180.44C117.93 180.44 121.5 183.92 121.5 188.22L121.51 188.22Z" fill="#AFDAF9" transform="matrix(1 0 0 1.00311 425 145.179)"/><path d="M99.59 203.05C99.59 210.881 93.2414 217.23 85.41 217.23 77.5786 217.23 71.23 210.881 71.23 203.05 71.23 195.219 77.5786 188.87 85.41 188.87 93.2414 188.87 99.59 195.219 99.59 203.05Z" fill="#F9DD53" transform="matrix(1 0 0 1.00311 425 145.179)"/><path d="M78.53 201.39C78 201.39 77.48 201.18 77.11 200.82 76.73 200.46 76.52 199.95 76.52 199.43 76.52 198.92 76.73 198.42 77.11 198.04 77.48 197.68 78 197.47 78.53 197.47 79.06 197.47 79.58 197.68 79.95 198.04 80.33 198.4 80.54 198.91 80.54 199.43 80.54 199.95 80.33 200.45 79.95 200.82 79.58 201.18 79.06 201.39 78.53 201.39Z" fill="#4D4D4D" transform="matrix(1 0 0 1.00311 425 145.179)"/><path d="M92.29 201.39C91.77 201.39 91.25 201.18 90.87 200.82 90.49 200.46 90.28 199.95 90.28 199.43 90.28 198.92 90.49 198.41 90.87 198.04 91.25 197.68 91.76 197.47 92.29 197.47 92.82 197.47 93.34 197.68 93.71 198.04 94.08 198.4 94.29 198.91 94.29 199.43 94.29 199.95 94.08 200.45 93.71 200.82 93.33 201.18 92.82 201.39 92.29 201.39Z" fill="#4D4D4D" transform="matrix(1 0 0 1.00311 425 145.179)"/><path d="M78.79 205.22C78.79 208.79 81.76 211.68 85.41 211.68 89.07 211.68 92.03 208.79 92.03 205.22L78.79 205.22Z" fill="#4D4D4D" transform="matrix(1 0 0 1.00311 425 145.179)"/><path d="M70.31 148.79C70.31 155.81 64.6195 161.5 57.6 161.5 50.5805 161.5 44.89 155.81 44.89 148.79 44.89 141.77 50.5805 136.08 57.6 136.08 64.6195 136.08 70.31 141.77 70.31 148.79Z" fill="#F9DD53" transform="matrix(1 0 0 1.00311 425 145.179)"/><path d="M51.43 147.5C50.91 147.5 50.39 147.29 50.01 146.93 49.63 146.57 49.42 146.06 49.42 145.54 49.42 145.02 49.63 144.52 50.01 144.15 50.39 143.79 50.9 143.58 51.43 143.58 51.96 143.58 52.48 143.79 52.85 144.15 53.22 144.51 53.43 145.02 53.43 145.54 53.43 146.06 53.22 146.56 52.85 146.93 52.47 147.29 51.96 147.5 51.43 147.5Z" fill="#4D4D4D" transform="matrix(1 0 0 1.00311 425 145.179)"/><path d="M63.77 147.5C63.25 147.5 62.73 147.29 62.35 146.93 61.97 146.57 61.76 146.06 61.76 145.54 61.76 145.02 61.97 144.52 62.35 144.15 62.73 143.79 63.24 143.58 63.77 143.58 64.3 143.58 64.82 143.79 65.19 144.15 65.56 144.51 65.77 145.02 65.77 145.54 65.77 146.06 65.56 146.56 65.19 146.93 64.81 147.29 64.3 147.5 63.77 147.5Z" fill="#4D4D4D" transform="matrix(1 0 0 1.00311 425 145.179)"/><path d="M57.6 154.74C55.77 154.74 53.94 154.06 52.55 152.7 52.19 152.34 52.19 151.76 52.55 151.41 52.91 151.06 53.51 151.05 53.87 151.41 55.92 153.42 59.27 153.42 61.33 151.41 61.69 151.05 62.29 151.05 62.65 151.41 63.01 151.77 63.01 152.35 62.65 152.7 61.25 154.06 59.43 154.74 57.6 154.74L57.61 154.74Z" fill="#4D4D4D" transform="matrix(1 0 0 1.00311 425 145.179)"/><path d="M62.7 180.44 58.45 188.41 55.29 194.34 49.32 205.53 49.32 188.22C49.32 183.92 52.88 180.44 57.29 180.44L62.7 180.44 62.7 180.44 62.69 180.44Z" fill="#F2F2F2" fill-opacity="0.23" transform="matrix(1 0 0 1.00311 425 145.179)"/><path d="M121.51 188.22 121.51 216.73C121.51 221.03 117.94 224.5 113.54 224.5L111.88 224.5 118.3 235.46 97.44 224.5 75.4 224.5 98.9 180.43 113.53 180.43C117.93 180.43 121.5 183.91 121.5 188.21L121.51 188.21Z" fill="#F2F2F2" fill-opacity="0.23" transform="matrix(1 0 0 1.00311 425 145.179)"/><path d="M35.46 126.75 29.33 138.25 26.01 144.46 21.49 152.92 21.49 134.52C21.49 130.22 25.05 126.74 29.46 126.74L35.45 126.74 35.46 126.75Z" fill="#F2F2F2" fill-opacity="0.23" transform="matrix(1 0 0 1.00311 425 145.179)"/><path d="M93.71 134.53 93.71 163.04C93.71 167.34 90.14 170.81 85.74 170.81L53.37 170.81 76.87 126.74 85.74 126.74C90.14 126.74 93.71 130.22 93.71 134.52Z" fill="#F2F2F2" fill-opacity="0.23" transform="matrix(1 0 0 1.00311 425 145.179)"/><text fill="#AAD4FF" font-family="Arial,Arial_MSFontService,sans-serif" font-weight="700" font-size="66" transform="matrix(1 0 0 1.00311 549.75 349)">MindMira</text></g></svg>